# xmcd CD database file generated by Grip 2.96
# 
# Track frame offsets:
#       150
#       16021
#       36235
# 
# Disc length: 719 seconds
# 
# Revision: 0
# Processed by: cddbd v1.4PL0 Copyright (c) Steve Scherf et al.
# Submitted via: Grip 2.96
# 
DISCID=1702cd03
DTITLE=Karen Blackwell Jones - Karen Blackwell Jones
DYEAR=2002
DGENRE=
TTITLE0=Ten Miles South of Nowhere
TTITLE1=I Need You
TTITLE2=Grandma's An Angel Now
EXTD=YEAR: 2002
EXTT0=
EXTT1=
EXTT2=
PLAYORDER=
